<?xml version="1.0" encoding="utf-8"?>
<svg version="1.1" xmlns:xlink="http://www.w3.org/1999/xlink" width="18px" height="18px" xmlns="http://www.w3.org/2000/svg">
  <defs>
    <mask fill="white" id="clip77">
      <path d="M 17.5757575757576 13.4545454545455  C 17.8585858585859 13.7373737373737  18 14.0808080808081  18 14.4848484848485  C 18 14.8888888888889  17.8585858585859 15.2323232323232  17.5757575757576 15.5151515151515  L 15.5151515151515 17.5757575757576  C 15.2323232323232 17.8585858585859  14.8888888888889 18  14.4848484848485 18  C 14.0808080808081 18  13.7373737373737 17.8585858585859  13.4545454545455 17.5757575757576  L 9 13.1212121212121  L 4.54545454545455 17.5757575757576  C 4.26262626262626 17.8585858585859  3.91919191919192 18  3.51515151515152 18  C 3.11111111111111 18  2.76767676767677 17.8585858585859  2.48484848484848 17.5757575757576  L 0.424242424242424 15.5151515151515  C 0.141414141414142 15.2323232323232  0 14.8888888888889  0 14.4848484848485  C 0 14.0808080808081  0.141414141414142 13.7373737373737  0.424242424242424 13.4545454545455  L 4.87878787878788 9  L 0.424242424242424 4.54545454545455  C 0.141414141414142 4.26262626262626  0 3.91919191919192  0 3.51515151515152  C 0 3.11111111111111  0.141414141414142 2.76767676767677  0.424242424242424 2.48484848484849  L 2.48484848484848 0.424242424242424  C 2.76767676767677 0.141414141414141  3.11111111111111 0  3.51515151515152 0  C 3.91919191919192 0  4.26262626262626 0.141414141414141  4.54545454545455 0.424242424242424  L 9 4.87878787878788  L 13.4545454545455 0.424242424242424  C 13.7373737373737 0.141414141414141  14.0808080808081 0  14.4848484848485 0  C 14.8888888888889 0  15.2323232323232 0.141414141414141  15.5151515151515 0.424242424242424  L 17.5757575757576 2.48484848484849  C 17.8585858585859 2.76767676767677  18 3.11111111111111  18 3.51515151515152  C 18 3.91919191919192  17.8585858585859 4.26262626262626  17.5757575757576 4.54545454545455  L 13.1212121212121 9  L 17.5757575757576 13.4545454545455  Z " fill-rule="evenodd" />
    </mask>
  </defs>
  <g transform="matrix(1 0 0 1 -646 -564 )">
    <path d="M 17.5757575757576 13.4545454545455  C 17.8585858585859 13.7373737373737  18 14.0808080808081  18 14.4848484848485  C 18 14.8888888888889  17.8585858585859 15.2323232323232  17.5757575757576 15.5151515151515  L 15.5151515151515 17.5757575757576  C 15.2323232323232 17.8585858585859  14.8888888888889 18  14.4848484848485 18  C 14.0808080808081 18  13.7373737373737 17.8585858585859  13.4545454545455 17.5757575757576  L 9 13.1212121212121  L 4.54545454545455 17.5757575757576  C 4.26262626262626 17.8585858585859  3.91919191919192 18  3.51515151515152 18  C 3.11111111111111 18  2.76767676767677 17.8585858585859  2.48484848484848 17.5757575757576  L 0.424242424242424 15.5151515151515  C 0.141414141414142 15.2323232323232  0 14.8888888888889  0 14.4848484848485  C 0 14.0808080808081  0.141414141414142 13.7373737373737  0.424242424242424 13.4545454545455  L 4.87878787878788 9  L 0.424242424242424 4.54545454545455  C 0.141414141414142 4.26262626262626  0 3.91919191919192  0 3.51515151515152  C 0 3.11111111111111  0.141414141414142 2.76767676767677  0.424242424242424 2.48484848484849  L 2.48484848484848 0.424242424242424  C 2.76767676767677 0.141414141414141  3.11111111111111 0  3.51515151515152 0  C 3.91919191919192 0  4.26262626262626 0.141414141414141  4.54545454545455 0.424242424242424  L 9 4.87878787878788  L 13.4545454545455 0.424242424242424  C 13.7373737373737 0.141414141414141  14.0808080808081 0  14.4848484848485 0  C 14.8888888888889 0  15.2323232323232 0.141414141414141  15.5151515151515 0.424242424242424  L 17.5757575757576 2.48484848484849  C 17.8585858585859 2.76767676767677  18 3.11111111111111  18 3.51515151515152  C 18 3.91919191919192  17.8585858585859 4.26262626262626  17.5757575757576 4.54545454545455  L 13.1212121212121 9  L 17.5757575757576 13.4545454545455  Z " fill-rule="nonzero" fill="#51af92" stroke="none" fill-opacity="0" transform="matrix(1 0 0 1 646 564 )" />
    <path d="M 17.5757575757576 13.4545454545455  C 17.8585858585859 13.7373737373737  18 14.0808080808081  18 14.4848484848485  C 18 14.8888888888889  17.8585858585859 15.2323232323232  17.5757575757576 15.5151515151515  L 15.5151515151515 17.5757575757576  C 15.2323232323232 17.8585858585859  14.8888888888889 18  14.4848484848485 18  C 14.0808080808081 18  13.7373737373737 17.8585858585859  13.4545454545455 17.5757575757576  L 9 13.1212121212121  L 4.54545454545455 17.5757575757576  C 4.26262626262626 17.8585858585859  3.91919191919192 18  3.51515151515152 18  C 3.11111111111111 18  2.76767676767677 17.8585858585859  2.48484848484848 17.5757575757576  L 0.424242424242424 15.5151515151515  C 0.141414141414142 15.2323232323232  0 14.8888888888889  0 14.4848484848485  C 0 14.0808080808081  0.141414141414142 13.7373737373737  0.424242424242424 13.4545454545455  L 4.87878787878788 9  L 0.424242424242424 4.54545454545455  C 0.141414141414142 4.26262626262626  0 3.91919191919192  0 3.51515151515152  C 0 3.11111111111111  0.141414141414142 2.76767676767677  0.424242424242424 2.48484848484849  L 2.48484848484848 0.424242424242424  C 2.76767676767677 0.141414141414141  3.11111111111111 0  3.51515151515152 0  C 3.91919191919192 0  4.26262626262626 0.141414141414141  4.54545454545455 0.424242424242424  L 9 4.87878787878788  L 13.4545454545455 0.424242424242424  C 13.7373737373737 0.141414141414141  14.0808080808081 0  14.4848484848485 0  C 14.8888888888889 0  15.2323232323232 0.141414141414141  15.5151515151515 0.424242424242424  L 17.5757575757576 2.48484848484849  C 17.8585858585859 2.76767676767677  18 3.11111111111111  18 3.51515151515152  C 18 3.91919191919192  17.8585858585859 4.26262626262626  17.5757575757576 4.54545454545455  L 13.1212121212121 9  L 17.5757575757576 13.4545454545455  Z " stroke-width="4" stroke="#51af92" fill="none" stroke-opacity="0.996078431372549" transform="matrix(1 0 0 1 646 564 )" mask="url(#clip77)" />
  </g>
</svg>