<?xml version="1.0" encoding="utf-8"?>
<!-- Generator: Adobe Illustrator 22.1.0, SVG Export Plug-In . SVG Version: 6.00 Build 0)  -->
<svg version="1.1" id="Слой_1" xmlns="http://www.w3.org/2000/svg" xmlns:xlink="http://www.w3.org/1999/xlink" x="0px" y="0px"
	 viewBox="0 0 961.6 194.5" style="enable-background:new 0 0 961.6 194.5;" xml:space="preserve">
<g>
	<g>
		<defs>
			<path id="SVGID_1_" d="M194.5,119.8l-27.8-59.9L194.5,0h55.6L194.5,119.8L194.5,119.8z M159.8,194.5l-34.7-74.7l-34.7,74.7L0,0
				h55.6l34.7,74.7L125.1,0l62.5,134.6L159.8,194.5L159.8,194.5z M318.9,194.5v-48.6h76.4v48.6H318.9L318.9,194.5z M318.9,72.9h76.4
				v48.6h-76.4V72.9L318.9,72.9z M318.9,0h76.4v48.6h-76.4V0L318.9,0z M256.3,194.5V0h48.8L305,194.5H256.3L256.3,194.5z
				 M476.4,60.7c0-3.3-1.2-6.2-3.5-8.5c-2.4-2.4-5.2-3.5-8.5-3.5c-3.4,0-6.3,1.2-8.7,3.5c-2.4,2.4-3.5,5.2-3.5,8.5
				c0,3.4,1.2,6.3,3.5,8.7c2.4,2.4,5.3,3.5,8.7,3.5c2.1,0,4.2,0.1,6.3,0.3l-25.1,45.6c-9-2.9-17-7.9-24.2-15
				c-11.9-11.9-17.8-26.2-17.8-43.1c0-16.8,5.9-31.1,17.8-42.9C433.1,5.9,447.5,0,464.3,0c16.8,0,31.1,5.9,42.9,17.8
				c11.9,11.9,17.8,26.2,17.8,42.9v1.8h-48.8C476.4,62,476.4,61.4,476.4,60.7L476.4,60.7z M452.1,133.7c0,3.4,1.2,6.3,3.5,8.7
				c2.4,2.4,5.3,3.5,8.7,3.5c3.3,0,6.2-1.2,8.5-3.5c2.4-2.4,3.5-5.3,3.5-8.7c0-3.3-1.2-6.2-3.5-8.5c-2.4-2.4-5.2-3.5-8.5-3.5
				c-2.1,0-4.3-0.1-6.4-0.3l25.1-45.6c9,2.9,17,7.9,24.2,15c11.9,11.9,17.8,26.2,17.8,42.9c0,16.9-5.9,31.2-17.8,43.1
				c-11.9,11.9-26.2,17.8-42.9,17.8c-16.9,0-31.2-5.9-43.1-17.8c-11.9-11.9-17.8-26.2-17.8-43.1V132h48.8
				C452.2,132.6,452.1,133.1,452.1,133.7L452.1,133.7z M746.8,194.5h-48.6V91.3L642.6,132L538.4,55.6V0l104.2,69.5L746.8,0v0.1
				L747,0L746.8,194.5L746.8,194.5z M587,194.5h-48.6v-125l48.6,35.7V194.5L587,194.5z M906,194.5l-9.3-17.4H832l26-48.6h12.8
				l-41.1-76.7L857.4,0l104.2,194.5H906L906,194.5z M808.8,194.5h-55.6l69.5-129.6l27.8,51.8L808.8,194.5L808.8,194.5z"/>
		</defs>
		<use xlink:href="#SVGID_1_"  style="overflow:visible;fill:#43bea2;"/>
		<clipPath id="SVGID_2_">
			<use xlink:href="#SVGID_1_"  style="overflow:visible;"/>
		</clipPath>
	</g>
</g>
</svg>
